HIERARCHY
ROOT Hips
{
	OFFSET -0.001795 -0.223333 0.028219
	CHANNELS 6 Xposition Yposition Zposition Zrotation Yrotation Xrotation 
	JOINT LeftUpLeg
	{
		OFFSET 0.069520 -0.091406 -0.006815
		CHANNELS 3 Zrotation Yrotation Xrotation
		JOINT LeftLeg
		{
			OFFSET 0.034277 -0.375199 -0.004496
			CHANNELS 3 Zrotation Yrotation Xrotation
			JOINT LeftFoot
			{
				OFFSET -0.013596 -0.397961 -0.043693
				CHANNELS 3 Zrotation Yrotation Xrotation
				JOINT LeftToe
				{
					OFFSET 0.026358 -0.055791 0.119288
					CHANNELS 3 Zrotation Yrotation Xrotation
					End Site
					{
						OFFSET 0.000000 0.000000 0.000000
					}
				}
			}
		}
	}
	JOINT RightUpLeg
	{
		OFFSET -0.067670 -0.090522 -0.004320
		CHANNELS 3 Zrotation Yrotation Xrotation
		JOINT RightLeg
		{
			OFFSET -0.038290 -0.382569 -0.008850
			CHANNELS 3 Zrotation Yrotation Xrotation
			JOINT RightFoot
			{
				OFFSET 0.015774 -0.398415 -0.042312
				CHANNELS 3 Zrotation Yrotation Xrotation
				JOINT RightToe
				{
					OFFSET -0.025372 -0.048144 0.123348
					CHANNELS 3 Zrotation Yrotation Xrotation
					End Site
					{
						OFFSET 0.000000 0.000000 0.000000
					}
				}
			}
		}
	}
	JOINT Spine
	{
		OFFSET -0.002533 0.108963 -0.026696
		CHANNELS 3 Zrotation Yrotation Xrotation
		JOINT Spine1
		{
			OFFSET 0.005487 0.135180 0.001092
			CHANNELS 3 Zrotation Yrotation Xrotation
			JOINT Spine2
			{
				OFFSET 0.001457 0.052922 0.025425
				CHANNELS 3 Zrotation Yrotation Xrotation
				JOINT Neck
				{
					OFFSET -0.002778 0.213870 -0.042857
					CHANNELS 3 Zrotation Yrotation Xrotation
					JOINT Head
					{
						OFFSET 0.005152 0.064970 0.051349
						CHANNELS 3 Zrotation Yrotation Xrotation
						End Site
						{
							OFFSET 0.000000 0.000000 0.000000
						}
					}
				}
				JOINT LeftShoulder
				{
					OFFSET 0.078845 0.121749 -0.034090
					CHANNELS 3 Zrotation Yrotation Xrotation
					JOINT LeftArm
					{
						OFFSET 0.090977 0.030469 -0.008868
						CHANNELS 3 Zrotation Yrotation Xrotation
						JOINT LeftForeArm
						{
							OFFSET 0.259612 -0.012772 -0.027456
							CHANNELS 3 Zrotation Yrotation Xrotation
							JOINT LeftHand
							{
								OFFSET 0.249234 0.008986 -0.001171
								CHANNELS 3 Zrotation Yrotation Xrotation
								End Site
								{
									OFFSET 0.000000 0.000000 0.000000
								}
							}
						}
					}
				}
				JOINT RightShoulder
				{
					OFFSET -0.081759 0.118833 -0.038615
					CHANNELS 3 Zrotation Yrotation Xrotation
					JOINT RightArm
					{
						OFFSET -0.096012 0.032551 -0.009143
						CHANNELS 3 Zrotation Yrotation Xrotation
						JOINT RightForeArm
						{
							OFFSET -0.253742 -0.013329 -0.021401
							CHANNELS 3 Zrotation Yrotation Xrotation
							JOINT RightHand
							{
								OFFSET -0.255298 0.007772 -0.005559
								CHANNELS 3 Zrotation Yrotation Xrotation
								End Site
								{
									OFFSET 0.000000 0.000000 0.000000
								}
							}
						}
					}
				}
			}
		}
	}
}
MOTION
Frames: 12
Frame Time: 0.050000
0.000000 0.948211 0.000000 -3.626064 2.534682 -11.224130 -3.568337 0.306274 2.904026 0.397767 -0.299425 6.196279 3.909024 9.981559 6.524937 0.000000 0.000000 0.000000 1.238679 2.454242 -22.745923 2.147082 0.040382 63.394771 1.151821 -1.627361 9.488641 0.000000 0.000000 0.000000 6.201515 -1.256597 14.253583 -0.309945 0.061468 2.964206 -4.547175 2.258582 3.365611 10.315458 -8.421962 -0.613299 0.000000 0.000000 0.000000 -26.559999 -12.579968 3.138241 -44.908362 -0.503509 -4.507420 -9.254433 -29.065009 3.172497 0.000000 0.000000 0.000000 25.584121 2.812771 0.822119 50.755994 5.788041 -2.999125 4.518723 32.237594 2.646168 0.000000 0.000000 0.000000 
0.001678 0.948081 0.007411 -5.064485 1.701952 -10.896500 -2.307279 0.457392 4.481702 0.935361 -0.265633 3.663152 4.201357 10.326084 5.923024 0.000000 0.000000 0.000000 2.472397 3.238876 -27.034658 0.921333 1.127959 57.414509 2.014638 -1.263134 12.853533 0.000000 0.000000 0.000000 7.983537 -1.272168 12.845931 0.384483 -0.392955 4.801978 -5.978354 2.555807 3.650292 11.072155 -8.684888 -1.919175 0.000000 0.000000 0.000000 -25.267344 -13.543940 3.641157 -45.617644 -1.361442 -4.262366 -9.069227 -28.965011 3.086726 0.000000 0.000000 0.000000 24.229088 2.591960 0.851812 54.071746 6.057291 -3.014754 2.315765 33.096085 2.200114 0.000000 0.000000 0.000000 
0.002911 0.948774 0.014703 -4.407015 0.316450 -11.547841 -3.349671 0.600443 5.449527 1.424948 -0.364024 4.241185 4.902282 11.590494 6.259460 0.000000 0.000000 0.000000 2.483032 3.280519 -26.573780 -1.229995 2.460404 45.678929 3.764245 2.756688 11.226883 0.000000 0.000000 0.000000 7.487980 -1.352955 14.427683 -0.100961 -0.081815 4.289479 -5.618327 3.964343 3.552513 9.814595 -7.980034 -0.677989 0.000000 0.000000 0.000000 -25.594014 -15.072614 4.317603 -45.464801 -1.691789 -4.043996 -8.754204 -27.710837 2.850374 0.000000 0.000000 0.000000 23.513727 2.543711 0.990096 54.217971 5.298285 -3.374947 3.924271 34.223165 2.801842 0.000000 0.000000 0.000000 
0.003694 0.950090 0.021239 -4.798785 0.244625 -11.410648 -3.282561 0.743920 6.685495 2.068673 -0.369223 2.551010 4.817346 11.484501 6.457437 0.000000 0.000000 0.000000 3.002793 3.290857 -25.672226 -2.372875 2.285983 33.352903 4.536674 3.960855 11.885631 0.000000 0.000000 0.000000 7.095366 -1.320183 14.439541 0.468970 -0.421808 4.909026 -5.547863 4.008104 3.611837 10.150902 -7.978274 -1.722829 0.000000 0.000000 0.000000 -25.140609 -15.457478 4.568877 -45.752829 -2.425944 -3.824648 -7.861950 -28.684795 2.726516 0.000000 0.000000 0.000000 23.218453 3.391949 1.493578 54.216247 5.698656 -3.180653 2.867985 35.093265 2.567400 0.000000 0.000000 0.000000 
0.004188 0.950704 0.027563 -4.590331 -0.216780 -11.414639 -3.453313 0.754129 6.667577 1.908230 -0.391215 3.374375 5.082677 11.934378 6.455529 0.000000 0.000000 0.000000 3.267366 3.056010 -23.267857 -3.108099 1.777089 21.053952 5.283848 4.415763 13.700534 0.000000 0.000000 0.000000 6.647100 -1.291706 14.702957 0.303443 -0.324489 5.011551 -5.237146 4.510425 3.855354 10.793122 -8.502625 -1.792946 0.000000 0.000000 0.000000 -24.833683 -16.657172 5.248996 -45.835612 -3.067942 -3.610010 -6.809856 -27.830261 2.393770 0.000000 0.000000 0.000000 23.045058 3.538699 1.631246 54.433639 6.217594 -2.971654 2.628669 35.882189 2.583119 0.000000 0.000000 0.000000 
0.004690 0.952197 0.034012 -4.740637 -0.385515 -11.660084 -3.435784 0.753729 6.676908 2.114932 -0.487213 4.593393 5.204098 12.163152 6.563683 0.000000 0.000000 0.000000 3.889133 2.909039 -21.207840 -3.434387 1.403012 14.450747 5.243745 5.304758 11.877825 0.000000 0.000000 0.000000 6.242618 -1.211819 14.346974 0.133212 -0.218592 4.798515 -4.323611 4.158906 5.176031 11.054640 -8.919060 -1.396753 0.000000 0.000000 0.000000 -24.388732 -16.668736 5.556888 -46.438092 -3.445322 -3.746557 -6.377870 -28.271803 2.376069 0.000000 0.000000 0.000000 22.391465 4.661007 2.141734 54.738220 7.195253 -2.615625 2.069450 35.783073 2.376046 0.000000 0.000000 0.000000 
0.005673 0.955473 0.040021 -4.857123 -0.148974 -11.453541 -3.307644 0.823603 7.322511 2.103626 -0.436360 3.692042 4.885312 11.761550 7.325538 0.000000 0.000000 0.000000 3.431981 2.793178 -21.066326 -2.984272 1.213788 13.326117 4.946845 4.764855 11.851609 0.000000 0.000000 0.000000 6.528752 -1.215203 13.993960 0.175124 -0.238165 4.579872 -4.279967 4.032207 5.694562 11.452016 -9.232134 -1.576793 0.000000 0.000000 0.000000 -24.589343 -17.197492 5.918127 -46.309132 -3.200178 -3.869339 -6.504234 -28.592649 2.448146 0.000000 0.000000 0.000000 22.349920 4.744428 2.207194 54.842969 7.046732 -2.738181 2.690448 36.157628 2.614517 0.000000 0.000000 0.000000 
0.007187 0.958877 0.045199 -5.144667 0.153291 -10.679059 -2.724228 0.762504 7.024349 1.326802 -0.307702 3.386533 4.778209 11.664999 7.717410 0.000000 0.000000 0.000000 3.744691 2.792073 -20.747107 -3.629110 1.471008 14.933383 5.155918 4.863999 12.529113 0.000000 0.000000 0.000000 7.076908 -1.145020 12.596986 0.182147 -0.261139 4.965015 -4.091038 3.811472 5.383123 11.699631 -9.688934 -0.635967 0.000000 0.000000 0.000000 -23.947378 -17.220235 5.973716 -47.390999 -2.921124 -4.094407 -6.724967 -29.234660 2.569183 0.000000 0.000000 0.000000 22.868565 5.279839 2.501127 54.209608 7.139767 -2.651103 2.771880 35.103512 2.508974 0.000000 0.000000 0.000000 
0.008980 0.962199 0.049048 -5.066520 0.773075 -9.661981 -2.418697 0.735443 6.908743 0.226633 -0.103195 2.105704 4.577242 11.458743 8.272858 0.000000 0.000000 0.000000 2.733109 2.482480 -19.983267 -3.778111 1.544381 15.651602 6.375870 5.299123 16.235484 0.000000 0.000000 0.000000 7.365099 -1.053053 11.233819 -0.059917 -0.159750 5.613438 -3.781875 3.220547 4.229616 11.579005 -9.582923 -0.347996 0.000000 0.000000 0.000000 -24.895860 -16.142495 5.435490 -46.752996 -2.163259 -4.216129 -7.096092 -29.382853 2.685286 0.000000 0.000000 0.000000 23.477230 5.666607 2.605208 53.162058 6.718505 -2.682707 2.459457 34.450592 2.294765 0.000000 0.000000 0.000000 
0.010652 0.964603 0.051812 -5.082533 0.883485 -9.103160 -2.184888 0.690521 6.577483 -0.340723 -0.013335 1.586578 4.520029 11.611114 9.487735 0.000000 0.000000 0.000000 2.950394 2.410572 -19.160033 -3.919460 1.637016 16.494906 7.548858 5.816303 19.287971 0.000000 0.000000 0.000000 7.551805 -1.043272 10.888739 -0.019495 -0.190560 5.766743 -3.896028 3.561287 3.045494 11.919398 -10.614772 2.308787 0.000000 0.000000 0.000000 -25.168341 -15.985614 5.142040 -46.944197 -1.375346 -4.374621 -7.535704 -29.400830 2.764820 0.000000 0.000000 0.000000 24.562859 5.679926 2.734744 52.044350 6.611325 -2.642638 2.931413 33.779523 2.365373 0.000000 0.000000 0.000000 
0.011841 0.966894 0.054002 -5.239361 0.977445 -8.306559 -2.052479 0.616360 5.903476 -0.391440 -0.006203 1.552577 4.355829 11.413773 9.836143 0.000000 0.000000 0.000000 2.983673 2.361036 -18.784063 -3.182071 1.529786 17.867570 8.275932 6.391337 20.594374 0.000000 0.000000 0.000000 7.645352 -0.965848 9.949897 -0.306983 -0.049197 6.278599 -3.482183 3.199265 2.007633 11.524990 -10.372549 2.955926 0.000000 0.000000 0.000000 -25.366989 -14.938456 4.615014 -47.047363 -1.057489 -4.451771 -8.162464 -29.250310 2.920060 0.000000 0.000000 0.000000 24.966119 5.899757 2.715457 51.812299 6.196822 -2.683023 3.168028 33.134703 2.325073 0.000000 0.000000 0.000000 
0.012651 0.966548 0.056377 -5.257299 1.066526 -7.890955 -2.143683 0.573937 5.445596 -0.323801 -0.012272 1.478750 4.506049 11.757422 10.323421 0.000000 0.000000 0.000000 3.310769 2.351933 -18.332526 -3.166141 1.582563 18.822898 8.471257 6.427818 21.192682 0.000000 0.000000 0.000000 7.691430 -0.915067 9.371125 -0.199547 -0.112314 6.276649 -3.506947 3.397884 1.410288 11.149074 -10.065485 3.156981 0.000000 0.000000 0.000000 -25.721010 -14.816397 4.419539 -47.067805 -0.675586 -4.504063 -7.889062 -28.781522 2.784152 0.000000 0.000000 0.000000 25.541260 5.475127 2.536348 51.343387 6.028351 -2.723159 4.085252 32.696695 2.549586 0.000000 0.000000 0.000000 
